# AST/ASF file generated using VICON BodyLanguage
# -----------------------------------------------
:version 1.10
:name VICON
:units
  mass 1.0
  length 0.45
  angle deg
:documentation
   .ast/.asf automatically generated from VICON data using
   VICON BodyBuilder and BodyLanguage model FoxedUp or BRILLIANT.MOD
:root
   order TX TY TZ RX RY RZ
   axis XYZ
   position 0 0 0  
   orientation 0 0 0 
:bonedata
  begin
     id 1 
     name lhipjoint
     direction 0.734343 -0.627749 0.258209 
     length 2.5437 
     axis 0 0 0  XYZ
  end
  begin
     id 2 
     name lfemur
     direction 0.34202 -0.939693 0  
     length 6.7391  
     axis 0 0 20  XYZ
    dof rx ry rz
    limits (-160.0 20.0)
           (-70.0 70.0)
           (-60.0 70.0)
  end
  begin
     id 3 
     name ltibia
     direction 0.34202 -0.939693 0   
     length 7.21536   
     axis 0 0 20   XYZ
    dof rx
    limits (-10.0 170.0)
  end
  begin
     id 4 
     name lfoot
     direction 0.0489572 -0.134509 0.989702   
     length 1.61313   
     axis -90 7.62852e-016 20   XYZ
    dof rx rz
    limits (-45.0 90.0)
           (-70.0 20.0)
  end
  begin
     id 5 
     name ltoes
     direction 1.53451e-011 -4.21692e-011 1   
     length 0.823104   
     axis -90 7.62852e-016 20   XYZ
    dof rx
    limits (-90.0 20.0)
  end
  begin
     id 6 
     name rhipjoint
     direction -0.746398 -0.615468 0.253157   
     length 2.59446  
     axis 0 0 0  XYZ 
  end
  begin
     id 7 
     name rfemur
     direction -0.34202 -0.939693 0   
     length 6.7075   
     axis 0 0 -20   XYZ
    dof rx ry rz
    limits (-160.0 20.0)
           (-70.0 70.0)
           (-70.0 60.0)
  end
  begin
     id 8 
     name rtibia
     direction -0.34202 -0.939693 0   
     length 7.27262   
     axis 0 0 -20   XYZ
    dof rx
    limits (-10.0 170.0)
 end
 begin
     id 9 
     name rfoot
     direction -0.0455203 -0.125066 0.991104   
     length 1.91095  
     axis -90 -7.62852e-016 -20   XYZ
    dof rx rz
    limits (-45.0 90.0)
           (-20.0 70.0)
  end
  begin
     id 10 
     name rtoes
     direction -1.53601e-011 -4.21913e-011 1   
     length 0.969037   
     axis -90 -7.62852e-016 -20   XYZ
    dof rx
    limits (-90.0 20.0)
  end
  begin
     id 11 
     name lowerback
     direction 0.0181546 0.999122 -0.0377542   
     length 1.99916   
     axis 0 0 0   XYZ
    dof rx ry rz
    limits (-20.0 45.0)
           (-30.0 30.0)
           (-30.0 30.0)
  end
  begin
     id 12 
     name upperback
     direction 0.0203486 0.99589 0.0882534   
     length 1.951   
     axis 0 0 0   XYZ
    dof rx ry rz
    limits (-20.0 45.0)
           (-30.0 30.0)
           (-30.0 30.0)
  end
  begin
     id 13 
     name thorax
     direction 0.0131685 0.994241 0.106355   
     length 1.97461   
     axis 0 0 0   XYZ
    dof rx ry rz
    limits (-20.0 45.0)
           (-30.0 30.0)
           (-30.0 30.0)
  end
  begin
     id 14 
     name lowerneck
     direction -0.0281395 0.999325 0.023617   
     length 1.7959   
     axis 0 0 0   XYZ
    dof rx ry rz
    limits (-20.0 45.0)
           (-30.0 30.0)
           (-30.0 30.0)
  end
  begin
     id 15 
     name upperneck
     direction 0.0288721 0.991984 -0.123019   
     length 1.79917   
     axis 0 0 0   XYZ
    dof rx ry rz
    limits (-20.0 45.0)
           (-30.0 30.0)
           (-30.0 30.0)
  end
  begin
     id 16
     name head
     direction 0.0133797 0.998944 -0.0439492  
     length 1.80902  
     axis 0 0 0   XYZ
    dof rx ry rz
    limits (-20.0 45.0)
           (-30.0 30.0)
           (-30.0 30.0)
  end
  begin
     id 17 
     name lclavicle
     direction 0.919195 0.377107 0.113449  
     length 3.17815  
     axis 0 0 0   XYZ
    dof ry rz
    limits (-20.0 10.0)
           (0.0 20.0)
  end
  begin
     id 18 
     name lhumerus
     direction 1 -4.48959e-011 2.13129e-027   
     length 4.84137   
     axis 180 -30 -90   XYZ
    dof rx ry rz
    limits (-60.0 90.0)
           (-90.0 90.0)
           (-90.0 90.0)
  end
  begin
     id 19
     name lradius
     direction 1 -4.48957e-011 -6.30627e-028   
     length 3.2452   
     axis 180 -30 -90   XYZ
    dof rx
    limits (-10.0 170.0)
  end
  begin
     id 20
     name lwrist
     direction 1 -4.4901e-011 9.13299e-027   
     length 1.6226   
     axis -6.84618e-015 90 90   XYZ
    dof ry
    limits (-180.0 0.0)
 end
  begin
     id 21 
     name lhand
     direction 1 -4.48816e-011 1.82293e-026   
     length 0.521221   
     axis -1.16502e-014 90 90   XYZ
    dof rx rz
    limits (-90.0 90.0)
           (-45.0 45.0)
  end
  begin
     id 22 
     name lfingers
     direction 1 -4.49108e-011 3.65687e-026   
     length 0.420221   
     axis -2.33008e-014 90 90   XYZ
    dof rx
    limits (0.0 90.0)
  end
  begin
     id 23
     name lthumb
     direction 0.707107 -6.34943e-011 0.707107   
     length 0.603356   
     axis -90 45 5.69224e-014   XYZ
    dof rx rz
    limits (-45.0 45.0)
           (-45.0 45.0)
  end
  begin
     id 24 
     name rclavicle
     direction -0.90847 0.38596 0.160368   
     length 3.12973  
     axis 0 0 0   XYZ 
    dof ry rz
    limits (-10.0 20.0)
           (-20.0 0.0)
  end
  begin
     id 25 
     name rhumerus
     direction -1 -4.48974e-011 4.47268e-028  
     length 4.72284   
     axis 180 30 90   XYZ
    dof rx ry rz
    limits (-90.0 60.0)
           (-90.0 90.0)
           (-90.0 90.0)
  end
  begin
     id 26 
     name rradius
     direction -1 -4.48969e-011 3.43203e-027   
     length 3.23459   
     axis 180 30 90   XYZ
    dof rx
    limits (-10.0 170.0)
  end
  begin
     id 27 
     name rwrist
     direction -1 -4.48969e-011 9.12911e-027   
     length 1.6173   
     axis -6.84618e-015 -90 -90   XYZ
    dof ry
    limits (-180.0 0.0)
  end
  begin
     id 28
     name rhand
     direction -1 -4.49194e-011 1.83006e-026   
     length 0.307416   
     axis -1.16502e-014 -90 -90   XYZ
    dof rx rz
    limits (-90.0 90.0)
           (-45.0 45.0)
  end
  begin
     id 29
     name rfingers
     direction -1 -4.48423e-011 3.63103e-026   
     length 0.247847   
     axis -2.33008e-014 -90 -90   XYZ
    dof rx
    limits (0.0 90.0)
  end
  begin
     id 30
     name rthumb
     direction -0.707107 -6.34802e-011 0.707107   
     length 0.35586   
     axis -90 -45 -5.69224e-014   XYZ
    dof rx rz
    limits (-45.0 45.0)
           (-45.0 45.0)
  end
:hierarchy
  begin
    root lhipjoint rhipjoint lowerback
    lhipjoint lfemur
    lfemur ltibia
    ltibia lfoot
    lfoot ltoes
    rhipjoint rfemur
    rfemur rtibia
    rtibia rfoot
    rfoot rtoes
    lowerback upperback
    upperback thorax
    thorax lowerneck lclavicle rclavicle
    lowerneck upperneck
    upperneck head
    lclavicle lhumerus
    lhumerus lradius
    lradius lwrist
    lwrist lhand lthumb
    lhand lfingers
    rclavicle rhumerus
    rhumerus rradius
    rradius rwrist
    rwrist rhand rthumb
    rhand rfingers
  end

#!OML:ASF H:\Terrain\Patient Classification 1\Animal1\Tuesday\Animal1.ASF
:FULLY-SPECIFIED
:DEGREES
1767
root 0.747259 15.0061 -0.134401 -712.352 -11.2445 -1.64965
lowerback 19.3131 -3.23621 -2.24523
upperback 3.20425 -5.24331 -6.02679
thorax -7.71112 -2.56145 -3.90554
lowerneck -6.25321 2.64835 -5.11735
upperneck -3.17426 4.01625 13.5796
head -0.267162 2.11908 4.9805
rclavicle -4.77083e-015 -2.22639e-014
rhumerus 9.15509 -5.6231 11.2907
rradius 35.4905
rwrist -22.66
rhand 18.3553 18.3904
rfingers 7.12502
rthumb 43 -5.85552
lclavicle -4.77083e-015 -2.22639e-014
lhumerus -7.91522 -5.47361 23.1526
lradius 47.7967
lwrist -30.0285
lhand 25.8568 27.9229
lfingers 7.12502
lthumb 49.9466 49.1736
rfemur -46.144 12.6851 29.8694
rtibia 64.7374
rfoot -9.62083 -4.61495
rtoes -24.2424
lfemur -46.2949 -7.06982 -16.6632
ltibia 84.2867
lfoot 35.449 -13.685
ltoes 42.3672
1768
root 0.747817 14.9782 -0.144849 -712.213 -10.796 -1.87805
lowerback 19.4245 -3.29198 -1.85315
upperback 3.08635 -5.23709 -5.89154
thorax -7.92128 -2.56573 -3.9758
lowerneck -5.95339 2.59199 -5.11741
upperneck -3.2961 3.94841 13.625
head -0.345987 2.07099 4.98727
rclavicle 5.64548e-014 -1.27222e-014
rhumerus 9.41597 -6.34675 10.7406
rradius 35.3198
rwrist -21.9365
rhand 18.2489 18.4114
rfingers 7.12502
rthumb 42.9005 -5.86963
lclavicle 5.64548e-014 -1.27222e-014
lhumerus -8.15559 -5.87966 23.2638
lradius 47.8511
lwrist -29.7941
lhand 25.191 27.7813
lfingers 7.12502
lthumb 49.3365 49.3455
rfemur -46.3851 12.7175 29.9701
rtibia 64.9314
rfoot -9.46678 -4.99966
rtoes -25.0431
lfemur -46.8256 -7.02651 -16.3099
ltibia 84.685
lfoot 35.7951 -13.3112
ltoes 43.3591
1769
root 0.74657 14.9615 -0.154531 -712.106 -10.3882 -1.97786
lowerback 19.3794 -3.3218 -1.648
upperback 3.06977 -5.21843 -5.75007
thorax -7.91747 -2.55974 -3.94406
lowerneck -5.72248 2.60645 -5.07449
upperneck -3.40982 3.97228 13.5156
head -0.417201 2.07086 4.94104
rclavicle -8.34896e-014 -4.29375e-014
rhumerus 9.54118 -7.16252 10.2912
rradius 35.432
rwrist -21.6068
rhand 18.5678 18.2385
rfingers 7.12502
rthumb 43.1986 -5.93684
lclavicle -8.34896e-014 -4.29375e-014
lhumerus -8.27376 -6.11505 23.4082
lradius 47.7533
lwrist -29.691
lhand 24.6641 27.4685
lfingers 7.12502
lthumb 48.8526 49.2735
rfemur -46.7328 12.7184 29.9503
rtibia 65.1797
rfoot -9.549 -5.41033
rtoes -26.7785
lfemur -47.2708 -6.93438 -16.1028
ltibia 84.9555
lfoot 35.9908 -13.7087
ltoes 42.8423
1770
root 0.744827 14.9568 -0.161439 -712.228 -9.99196 -1.70394
lowerback 19.5182 -3.33826 -1.81549
upperback 3.07183 -5.27455 -5.69942
thorax -7.97376 -2.57915 -3.77287
lowerneck -5.49441 2.63545 -5.1207
upperneck -3.5191 4.0228 13.5298
head -0.492615 2.08543 4.94805
rclavicle 3.49861e-014 -1.59028e-014
rhumerus 9.44841 -7.49341 10.0687
rradius 35.847
rwrist -21.7831
rhand 18.4421 18.1953
rfingers 7.12502
rthumb 43.0811 -6.02188
lclavicle 3.49861e-014 -1.59028e-014
lhumerus -8.47091 -6.29791 23.5093
lradius 47.7567
lwrist -29.6381
lhand 24.7463 27.1689
lfingers 7.12502
lthumb 48.9281 48.9368
rfemur -46.8812 12.5981 29.5724
rtibia 65.487
rfoot -9.61942 -5.82811
rtoes -26.443
lfemur -47.3398 -6.93394 -16.4018
ltibia 84.9998
lfoot 36.1498 -14.4384
ltoes 41.8938
1771
root 0.744789 14.9449 -0.168389 -712.357 -9.60515 -1.48382
lowerback 19.8309 -3.35629 -1.96388
upperback 2.98501 -5.34015 -5.60785
thorax -8.21925 -2.60114 -3.5564
lowerneck -5.25268 2.64179 -5.10442
upperneck -3.54545 4.0276 13.4336
head -0.539043 2.07851 4.9107
rclavicle -1.90833e-014 5.88403e-014
rhumerus 10.3834 -7.12637 10.3938
rradius 35.4005
rwrist -22.5923
rhand 18.5425 18.2532
rfingers 7.12502
rthumb 43.175 -5.93061
lclavicle -1.90833e-014 5.88403e-014
lhumerus -8.99098 -6.66455 23.6557
lradius 47.9804
lwrist -29.2969
lhand 24.2611 26.8403
lfingers 7.12502
lthumb 48.4819 48.8251
rfemur -46.9677 12.488 29.2611
rtibia 65.8032
rfoot -9.40586 -6.75279
rtoes -29.1076
lfemur -47.4088 -7.01465 -16.6563
ltibia 85.0415
lfoot 36.3229 -14.2074
ltoes 42.3476
1772
root 0.744008 14.9372 -0.171668 -712.482 -9.24794 -1.43651
lowerback 20.1197 -3.34496 -1.9377
upperback 2.9208 -5.32196 -5.45326
thorax -8.43141 -2.58706 -3.39368
lowerneck -5.004 2.64526 -5.0303
upperneck -3.56552 4.02115 13.1637
head -0.580096 2.06576 4.81014
rclavicle -9.54166e-015 -4.92986e-014
rhumerus 10.257 -7.66813 10.1166
rradius 35.6807
rwrist -22.3991
rhand 19.3926 18.3457
rfingers 7.12502
rthumb 43.9688 -5.54876
lclavicle -9.54166e-015 -4.92986e-014
lhumerus -9.45335 -7.27866 23.8364
lradius 48.1451
lwrist -28.6434
lhand 23.2946 26.9297
lfingers 7.12502
lthumb 47.5909 49.3311
rfemur -47.043 12.4583 29.0952
rtibia 66.0952
rfoot -9.52591 -7.23001
rtoes -30.1453
lfemur -47.3989 -7.08495 -16.7212
ltibia 85.0393
lfoot 36.4916 -13.3976
ltoes 43.5965
1773
root 0.74141 14.935 -0.174056 -712.536 -8.86543 -1.40582
lowerback 20.2488 -3.34329 -1.83666
upperback 2.90092 -5.29237 -5.33169
thorax -8.51799 -2.57207 -3.32019
lowerneck -4.74007 2.62575 -5.00459
upperneck -3.70769 3.99996 13.0004
head -0.660229 2.04221 4.74975
rclavicle -5.80451e-014 -5.725e-014
rhumerus 9.97637 -7.83115 10.1551
rradius 36.0253
rwrist -22.8145
rhand 19.7944 18.2408
rfingers 7.12502
rthumb 44.3435 -5.5127
lclavicle -5.80451e-014 -5.725e-014
lhumerus -9.67507 -7.87048 23.8959
lradius 48.2271
lwrist -28.2572
lhand 23.233 27.398
lfingers 7.12502
lthumb 47.534 49.8253
rfemur -47.1994 12.412 28.9271
rtibia 66.3494
rfoot -9.53596 -7.68231
rtoes -30.4346
lfemur -47.4585 -7.10991 -16.7651
ltibia 85.0575
lfoot 36.5903 -12.8485
ltoes 44.386
1774
root 0.740449 14.9247 -0.180514 -712.454 -8.44416 -1.48552
lowerback 20.2679 -3.38526 -1.5857
upperback 2.85569 -5.28339 -5.20489
thorax -8.58711 -2.57265 -3.32458
lowerneck -4.56548 2.59134 -4.97853
upperneck -3.76001 3.95174 12.8779
head -0.697552 2.01092 4.7043
rclavicle 1.98785e-014 2.70347e-014
rhumerus 9.97453 -8.00182 10.1627
rradius 36.2212
rwrist -23.1484
rhand 19.9197 18.5071
rfingers 7.12502
rthumb 44.4603 -5.20192
lclavicle 1.98785e-014 2.70347e-014
lhumerus -9.94092 -8.11929 23.9846
lradius 48.4042
lwrist -28.3308
lhand 23.482 27.617
lfingers 7.12502
lthumb 47.7639 49.9392
rfemur -47.4859 12.2924 28.9266
rtibia 66.5574
rfoot -9.94316 -7.1591
rtoes -28.3867
lfemur -47.8419 -7.18024 -16.5999
ltibia 85.2387
lfoot 36.9149 -12.3892
ltoes 45.1527
1775
root 0.742744 14.9098 -0.187924 -712.361 -8.07081 -1.50147
lowerback 20.3157 -3.41554 -1.38674
upperback 2.7748 -5.27305 -5.07359
thorax -8.70596 -2.57069 -3.29314
lowerneck -4.48372 2.54537 -5.12474
upperneck -3.66656 3.88583 12.885
head -0.680541 1.98005 4.73012
rclavicle 1.82882e-014 2.38542e-014
rhumerus 10.213 -8.69899 9.6915
rradius 36.2419
rwrist -22.7544
rhand 20.1501 18.671
rfingers 7.12502
rthumb 44.6749 -4.95545
lclavicle 1.82882e-014 2.38542e-014
lhumerus -10.2424 -8.24475 24.2127
lradius 48.483
lwrist -28.5422
lhand 23.4559 27.7729
lfingers 7.12502
lthumb 47.7398 50.1062
rfemur -47.7429 12.1444 28.8919
rtibia 66.748
rfoot -10.0279 -7.60168
rtoes -31.9699
lfemur -48.2668 -7.34893 -16.491
ltibia 85.4566
lfoot 37.0964 -12.1767
ltoes 45.6565
1776
root 0.744682 14.8931 -0.196265 -712.389 -7.80164 -1.28694
lowerback 20.4312 -3.42027 -1.52119
upperback 2.75575 -5.30271 -4.96953
thorax -8.76814 -2.57649 -3.08916
lowerneck -4.53803 2.55583 -5.35731
upperneck -3.52247 3.89944 12.9527
head -0.636206 1.99571 4.79162
rclavicle 2.8625e-014 -2.22639e-014
rhumerus 10.7801 -8.75973 9.80016
rradius 36.0958
rwrist -23.4658
rhand 19.8969 18.2073
rfingers 7.12502
rthumb 44.4391 -5.50986
lclavicle 2.8625e-014 -2.22639e-014
lhumerus -10.5643 -8.43209 24.3852
lradius 48.4017
lwrist -28.7091
lhand 23.3978 27.7441
lfingers 7.12502
lthumb 47.6863 50.102
rfemur -47.8976 12.1372 28.5231
rtibia 66.9781
rfoot -10.038 -8.81121
rtoes -32.5344
lfemur -48.4058 -7.44648 -16.7845
ltibia 85.6046
lfoot 36.7464 -12.4755
ltoes 45.102
1777
root 0.746164 14.8757 -0.204254 -712.503 -7.58817 -0.778854
lowerback 20.529 -3.35718 -1.99313
upperback 2.79524 -5.32295 -4.96273
thorax -8.73474 -2.56861 -2.80515
lowerneck -4.59181 2.61637 -5.17405
upperneck -3.48539 3.96508 12.6715
head -0.615198 2.02997 4.67562
rclavicle -4.45278e-014 -2.22639e-014
rhumerus 11.0437 -9.56397 9.3949
rradius 36.0557
rwrist -23.3628
rhand 19.5979 18.0677
rfingers 7.12502
rthumb 44.1603 -5.75515
lclavicle -4.45278e-014 -2.22639e-014
lhumerus -10.9248 -8.73324 24.4612
lradius 48.5362
lwrist -28.7921
lhand 23.3876 27.3559
lfingers 7.12502
lthumb 47.6768 49.7181
rfemur -48.1445 12.1751 27.7684
rtibia 67.2822
rfoot -10.798 -7.76409
rtoes -31.1455
lfemur -48.3511 -7.50924 -17.5151
ltibia 85.6813
lfoot 36.3581 -12.8194
ltoes 44.3479
1778
root 0.750123 14.8543 -0.209446 -712.572 -7.39206 -0.56478
lowerback 20.6165 -3.19019 -2.07146
upperback 2.75758 -5.12526 -4.94085
thorax -8.80574 -2.47006 -2.78814
lowerneck -4.26877 2.56093 -4.79898
upperneck -3.57698 3.86814 12.2907
head -0.673844 1.96511 4.49002
rclavicle -1.59028e-015 9.54166e-015
rhumerus 11.0665 -10.2258 9.14325
rradius 35.8203
rwrist -23.166
rhand 19.6177 18.379
rfingers 7.12502
rthumb 44.1788 -5.43692
lclavicle -1.59028e-015 9.54166e-015
lhumerus -11.132 -9.29513 24.6211
lradius 48.9031
lwrist -28.9516
lhand 23.6718 27.2072
lfingers 7.12502
lthumb 47.939 49.4484
rfemur -48.2206 12.121 27.4729
rtibia 67.4662
rfoot -9.79477 -8.14293
rtoes -33.3942
lfemur -48.419 -7.55344 -17.8879
ltibia 85.869
lfoot 35.8582 -13.1518
ltoes 43.7116
